<?xml version="1.0" encoding="utf-8"?>
<!-- Generator: Adobe Illustrator 27.1.1, SVG Export Plug-In . SVG Version: 6.00 Build 0)  -->
<svg version="1.1" baseProfile="basic" id="Layer_1"
	 xmlns="http://www.w3.org/2000/svg" xmlns:xlink="http://www.w3.org/1999/xlink" x="0px" y="0px" viewBox="0 0 1280 1024"
	 xml:space="preserve">
<g>
	<g>
		<path fill="#FFFFFF" d="M197.99,471.13c-0.71,0.11-1.48,0.24-2.14,0.52c-1.41,0.64-2.29,1.97-2.29,3.24
			c0,2.25,2.19,2.72,4.42,3.19V471.13z M174.94,413.77c-54.25,0-98.23,43.99-98.23,98.23c0,54.27,43.98,98.25,98.23,98.24
			c54.25,0,98.23-44,98.23-98.24C273.18,457.74,229.19,413.76,174.94,413.77z M168.18,421.63v31.95h-25.04
			C149.57,441.61,158.12,430.43,168.18,421.63z M168.18,465.52v39.33l-38.14,0.01c0.63-12.99,3.41-26.26,7.93-39.33L168.18,465.52z
			 M148.92,424.2c-7.76,7.53-14.4,17.58-19.53,29.38H106.8C117.67,440.48,132.19,430.23,148.92,424.2z M89.43,499.57
			c3.54-1.38,7.32-4.95,7.32-9.21c0-0.87,0-1.69-0.19-2.51l-0.34-1.86l-5.81,0.02v-4.09l5.07-0.01l-0.1-0.57
			c-0.33-1.56-0.52-3.32-0.52-5.07c0-7.83,5.94-13.03,14.76-13.03c3.52,0,6.2,0.75,9.9,2.36l-1.57,7.21
			c-3.56-1.54-5.38-1.98-7.8-1.98c-4.64,0-6.07,2.82-6.07,5.89c0,1.63,0.26,3.07,0.59,4.63l0.07,0.54l7.44-0.01v4.07l-6.87,0.02
			l0.27,1.9c0,1.5-0.13,3.01-0.59,4.45c-0.6,1.57-1.64,3.14-3.2,4.45v0.13h17.44v7.77H89.43V499.57z M98.66,557.55
			c-6.97-10.84-11.3-24.18-12.23-39.4h32.14c0.51,15.05,2.83,28.36,6.62,39.4H98.66z M105.88,569.53h22.59
			c6.05,12.7,12.69,22.75,20.45,30.28C132.19,593.78,117.67,583.53,105.88,569.53z M168.18,602.37
			c-10.05-8.8-18.61-19.97-25.04-32.84l25.04,0V602.37z M163.54,555.26c-1.6,1.23-5.3,3.61-10.55,3.61
			c-8.53,0-15.65-5.8-17.57-16.16l-5.54,0.02l2.18-4.28h2.9c-0.03-0.5-0.06-0.98-0.06-1.5c0-0.93,0.06-1.83,0.14-2.74l-5.16,0.03
			l2.18-4.29l3.75-0.01c2.3-8.71,8.86-14.87,17.41-14.87c4.33,0,8.19,1.63,11.02,4.09c2.63,2.28,3.86,4.57,4.93,6.61l-7.49,4.09
			c-0.54-1.34-1.17-2.76-2.84-4.27c-1.82-1.59-3.64-2.06-5.2-2.06c-3.97,0-6.71,2.63-8.14,6.37l9.9-0.03l-2.37,4.25l-8.55,0.04
			c-0.09,0.81-0.14,1.64-0.14,2.48c0,0.63,0.06,1.18,0.1,1.77l10.96-0.04l-2.37,4.25l-7.93,0.03c1.44,5.04,4.75,7.56,8.55,7.56
			c4.93,0,6.91-3.75,8.19-6.13l7.44,4.13C167.88,550.64,166.54,552.98,163.54,555.26z M251.23,465.52
			c6.98,11.76,11.3,25.1,12.23,39.33l-32.15,0.01c-0.5-14.07-2.83-27.38-6.62-39.33L251.23,465.52z M243.09,453.57H220.5
			c-5.13-11.79-11.77-21.84-19.53-29.38C217.7,430.23,232.21,440.48,243.09,453.57z M183.32,498.61l4.96-6
			c5.07,3,7.64,3.3,9.71,3.46v-8.91c-4.04-0.8-7.75-1.67-10.14-3.94c-2.94-2.71-3-6.19-3-7.28c0-4.41,1.69-7.76,4.85-10.02
			c2.89-2.03,5.88-2.32,8.23-2.49v-3.23h4.41v3.23c4.74,0.52,7.85,1.84,12.16,4.68l-4.79,5.91c-3.66-1.97-4.53-2.2-7.36-2.83v7.69
			c4.53,1.1,8.45,2.08,10.9,4.81c1.59,1.72,2.57,4.34,2.57,7.11c0,1.23-0.17,2.38-0.5,3.61c-0.93,3.52-2.5,5.5-4.96,7.11
			c-2.83,1.79-5.23,2.09-8.01,2.43v3.24h-4.35v-3.24C193.03,503.43,188.66,502.45,183.32,498.61z M181.71,421.63
			c10.07,8.81,18.6,19.97,25.04,31.95H181.7L181.71,421.63z M181.7,518.15h38.14c-0.61,13.99-3.4,27.25-7.92,39.39l-30.22,0.01
			V518.15z M181.7,602.37v-32.84h25.04C200.31,582.4,191.76,593.56,181.7,602.37z M200.97,599.81c7.76-7.54,14.4-17.59,20.41-30.28
			l22.57,0C232.21,583.51,217.7,593.77,200.97,599.81z M259.1,532.93v3.87l-7.9,0.03l-1.22,2.06v1.82l9.13-0.02v3.89l-9.13,0.03
			v12.95h-7.99v-12.94l-9.02,0.02v-3.89l9.02-0.03v-1.55l-1.32-2.3l-7.7,0.02v-3.9l5.45-0.01l-8.6-14.87h9.34l6.98,13.53
			c0.42-1.13,0.51-1.36,1.33-2.97L253,518.1h9.24l-8.76,14.83L259.1,532.93z M207.08,491.57c0-2.61-2.56-3.19-4.74-3.53v7.92
			C203.65,495.73,207.08,495.09,207.08,491.57z"/>
	</g>
	<path fill="#FFFFFF" d="M395.39,555.73c-4.66,4.34-14.28,13.16-33.38,13.16c-31.62,0-51.03-25.68-51.03-59.06
		c0-36.43,23.58-60.66,55.84-60.66c30.01,0,44.61,19.25,49.92,26.15l-21.51,13c-4.02-6.1-10.59-16.04-26.32-16.04
		c-21.5,0-29.69,17.81-29.69,36.75c0,12.84,3.53,23.27,8.99,28.89c4.33,4.65,12.03,8.18,20.7,8.18c5.13,0,10.91-1.28,15.56-4.33
		c7.4-4.81,8.35-10.91,9.16-16.85h-25.35v-21.5h49.26v62.91h-22.14V555.73z"/>
	<path fill="#FFFFFF" d="M433.62,453.03h45.58c18.61,0,35.14,0,45.09,14.28c4.33,6.42,6.42,15.57,6.42,23.27
		c0,6.26-1.28,12.37-3.85,17.66c-9.79,20.22-30.65,20.7-46.05,21.02h-18.77v37.08h-28.41V453.03z M462.02,473.88v34.35h17.01
		c10.59,0,23.43-0.32,23.43-17.82c0-16.53-14.29-16.53-22.47-16.53H462.02z"/>
	<path fill="#FFFFFF" d="M554.63,532.3c2.88,3.21,5.29,5.77,10.91,8.82c7.54,4.01,15.24,5.46,21.81,5.46
		c11.24,0,20.86-5.3,20.86-13.16c0-8.99-11.38-10.44-19.73-11.55c-6.26-0.81-12.51-1.61-18.61-2.9c-6.9-1.44-30.49-6.41-30.49-30.81
		c0-29.21,26-37.88,45.58-37.88c26.16,0,40.28,12.68,50.06,21.51l-20.85,14.93c-3.53-3.53-6.75-6.58-11.24-9.15
		c-4.01-2.25-11.24-4.98-18.46-4.98c-11.23,0-16.84,6.42-16.84,11.88c0,8.66,9.62,9.95,14.44,10.59
		c12.04,1.45,28.24,4.49,34.66,6.74c13,4.82,19.58,14.93,19.58,27.76c0,8.19-3.04,17.17-8.98,24.07
		c-10.28,11.89-26.65,15.25-42.53,15.25c-31.94,0-44.61-14.76-51.68-22.95L554.63,532.3z"/>
	<g>
		<path fill="#FFFFFF" d="M650.93,464.79c-5.54,0-10.65-4.35-10.65-10.67c0-6.15,4.92-10.68,10.68-10.68
			c6.18,0,10.7,4.89,10.67,10.71C661.61,460.09,656.96,464.79,650.93,464.79z M651.02,444.4c-5.49,0-9.78,4.38-9.78,9.72
			c0,5.46,4.38,9.71,9.72,9.71c5.48,0,9.68-4.32,9.71-9.69C660.71,448.84,656.57,444.4,651.02,444.4z M650.87,447.13
			c1.17,0,2.31,0.03,3.24,0.33c1.74,0.54,2.43,2.13,2.43,3.39c0,2.04-1.53,2.76-2.4,3.15c0.85,0.54,1.24,0.87,1.53,2.58
			c0.3,1.86,0.48,3.03,1.17,4.29h-3.77c-0.42-0.84-0.57-1.77-0.75-2.97c-0.36-2.58-0.45-2.73-2.46-2.79h-0.57v5.76h-3.3v-13.73
			H650.87z M649.28,452.5h1.44c0.99,0,1.53-0.03,1.92-0.27c0.42-0.24,0.6-0.78,0.6-1.2c0-0.45-0.18-0.99-0.72-1.23
			c-0.39-0.15-0.63-0.15-2.25-0.15h-0.99V452.5z"/>
	</g>
	<path fill="#FFFFFF" d="M689.05,515.93c0-2.5,0.45-4.97,1.36-7.41c0.9-2.44,2.22-4.62,3.95-6.54c1.73-1.92,3.84-3.48,6.34-4.67
		c2.5-1.19,5.34-1.79,8.53-1.79c3.77,0,7.02,0.83,9.77,2.48c2.75,1.65,4.79,3.81,6.14,6.46l-6.11,4.21
		c-0.54-1.15-1.19-2.12-1.96-2.91c-0.77-0.79-1.6-1.41-2.48-1.87c-0.89-0.46-1.81-0.8-2.77-1.01c-0.96-0.21-1.9-0.32-2.83-0.32
		c-2,0-3.74,0.4-5.22,1.21c-1.48,0.81-2.71,1.86-3.69,3.14c-0.98,1.29-1.72,2.75-2.22,4.38c-0.5,1.63-0.75,3.26-0.75,4.87
		c0,1.81,0.29,3.55,0.87,5.22c0.58,1.67,1.39,3.14,2.45,4.41c1.06,1.27,2.33,2.29,3.81,3.06c1.48,0.77,3.1,1.15,4.87,1.15
		c0.92,0,1.88-0.12,2.88-0.35c1-0.23,1.95-0.6,2.85-1.1c0.9-0.5,1.74-1.14,2.51-1.93c0.77-0.79,1.38-1.74,1.84-2.85l6.52,3.75
		c-0.65,1.54-1.58,2.89-2.8,4.07c-1.21,1.17-2.58,2.16-4.09,2.97c-1.52,0.81-3.14,1.42-4.87,1.84c-1.73,0.42-3.42,0.63-5.07,0.63
		c-2.92,0-5.59-0.61-8.02-1.84c-2.42-1.23-4.51-2.84-6.26-4.82c-1.75-1.98-3.11-4.23-4.09-6.75
		C689.54,521.11,689.05,518.54,689.05,515.93z"/>
	<path fill="#FFFFFF" d="M742.16,495.75h7.03l15.57,40.94h-8.19l-3.81-10.21h-14.3l-3.75,10.21h-8.19L742.16,495.75z M751.33,520.89
		l-5.65-16.09l-5.88,16.09H751.33z"/>
	<path fill="#FFFFFF" d="M769.26,536.69v-40.94h17.36c1.88,0,3.62,0.39,5.22,1.18c1.59,0.79,2.97,1.83,4.12,3.11
		c1.15,1.29,2.06,2.75,2.71,4.38c0.65,1.63,0.98,3.28,0.98,4.93c0,1.73-0.31,3.41-0.92,5.05c-0.61,1.63-1.48,3.08-2.59,4.35
		c-1.12,1.27-2.46,2.29-4.04,3.06c-1.58,0.77-3.31,1.15-5.19,1.15h-9.69v13.72H769.26z M777.22,515.99h9.23
		c1.46,0,2.68-0.6,3.66-1.79c0.98-1.19,1.47-2.81,1.47-4.84c0-1.04-0.15-1.97-0.46-2.8c-0.31-0.83-0.71-1.53-1.21-2.11
		c-0.5-0.58-1.09-1.01-1.76-1.3c-0.67-0.29-1.35-0.43-2.05-0.43h-8.88V515.99z"/>
	<path fill="#FFFFFF" d="M805.18,536.69v-40.94h7.96v40.94H805.18z"/>
	<path fill="#FFFFFF" d="M852.3,502.72h-13.09v33.96h-7.9v-33.96h-13.09v-6.98h34.08V502.72z"/>
	<path fill="#FFFFFF" d="M864.98,495.75h7.04l15.57,40.94h-8.19l-3.81-10.21h-14.3l-3.75,10.21h-8.19L864.98,495.75z M874.15,520.89
		l-5.65-16.09l-5.88,16.09H874.15z"/>
	<path fill="#FFFFFF" d="M892.08,536.69v-40.94h7.96v33.96h20.87v6.98H892.08z"/>
	<path fill="#FFFFFF" d="M971.43,536.69v-27.1l-10.55,20.18h-4.32L946,509.58v27.1h-7.96v-40.94h8.53l12.11,23.3l12.23-23.3h8.48
		v40.94H971.43z"/>
	<path fill="#FFFFFF" d="M999.57,495.75h7.03l15.57,40.94h-8.19l-3.81-10.21h-14.3l-3.75,10.21h-8.19L999.57,495.75z
		 M1008.73,520.89l-5.65-16.09l-5.88,16.09H1008.73z"/>
	<path fill="#FFFFFF" d="M1026.67,536.69v-40.94h18.11c1.88,0,3.62,0.39,5.22,1.18c1.59,0.79,2.97,1.83,4.12,3.11
		c1.15,1.29,2.06,2.75,2.71,4.38c0.65,1.63,0.98,3.28,0.98,4.93c0,2.65-0.66,5.07-1.99,7.24c-1.33,2.17-3.12,3.74-5.39,4.7
		l9.34,15.4h-8.94l-8.36-13.72h-7.84v13.72H1026.67z M1034.62,515.99h9.98c0.73,0,1.41-0.17,2.05-0.52
		c0.63-0.35,1.18-0.82,1.64-1.41c0.46-0.6,0.83-1.3,1.09-2.1c0.27-0.81,0.4-1.67,0.4-2.59c0-0.96-0.15-1.84-0.46-2.65
		c-0.31-0.81-0.72-1.51-1.24-2.1c-0.52-0.6-1.12-1.06-1.79-1.38c-0.67-0.33-1.36-0.49-2.05-0.49h-9.63V515.99z"/>
	<path fill="#FFFFFF" d="M1065.01,536.69V495.8h7.96v19.43l17.18-19.49h8.76l-15.68,18.16l16.66,22.78h-8.94l-12.74-17.7l-5.25,5.48
		v12.22H1065.01z"/>
	<path fill="#FFFFFF" d="M1132.02,529.71v6.98h-28.43v-40.94h27.91v6.98h-19.95v9.86h17.24v6.46h-17.24v10.67H1132.02z"/>
	<path fill="#FFFFFF" d="M1168.86,502.72h-13.09v33.96h-7.9v-33.96h-13.09v-6.98h34.08V502.72z"/>
	<path fill="#FFFFFF" d="M1198.33,506.47c-0.27-0.27-0.76-0.63-1.47-1.1c-0.71-0.46-1.58-0.91-2.59-1.36
		c-1.02-0.44-2.13-0.82-3.32-1.12c-1.19-0.31-2.4-0.46-3.63-0.46c-2.19,0-3.83,0.4-4.9,1.21c-1.08,0.81-1.61,1.94-1.61,3.4
		c0,0.85,0.2,1.55,0.61,2.1c0.4,0.56,0.99,1.05,1.76,1.47c0.77,0.42,1.74,0.81,2.91,1.15c1.17,0.35,2.53,0.71,4.07,1.1
		c2,0.54,3.81,1.12,5.45,1.73c1.63,0.62,3.02,1.38,4.15,2.31c1.13,0.92,2.01,2.03,2.62,3.32c0.61,1.29,0.92,2.87,0.92,4.76
		c0,2.19-0.41,4.07-1.24,5.62c-0.83,1.56-1.94,2.82-3.34,3.78c-1.4,0.96-3.02,1.66-4.84,2.11c-1.83,0.44-3.74,0.66-5.74,0.66
		c-3.08,0-6.11-0.46-9.11-1.38c-3-0.92-5.69-2.23-8.07-3.92l3.52-6.86c0.35,0.35,0.97,0.8,1.87,1.36c0.9,0.56,1.97,1.12,3.2,1.67
		c1.23,0.56,2.59,1.03,4.09,1.41c1.5,0.38,3.04,0.58,4.61,0.58c4.38,0,6.57-1.4,6.57-4.21c0-0.88-0.25-1.63-0.75-2.25
		c-0.5-0.61-1.21-1.15-2.13-1.61c-0.92-0.46-2.04-0.88-3.34-1.27c-1.31-0.38-2.77-0.81-4.38-1.27c-1.96-0.54-3.66-1.12-5.1-1.76
		c-1.44-0.63-2.64-1.38-3.6-2.25c-0.96-0.87-1.68-1.86-2.16-3c-0.48-1.13-0.72-2.49-0.72-4.07c0-2.08,0.38-3.92,1.15-5.54
		s1.84-2.96,3.2-4.04c1.36-1.08,2.95-1.89,4.76-2.45c1.81-0.56,3.75-0.84,5.82-0.84c2.88,0,5.54,0.45,7.96,1.36
		c2.42,0.9,4.54,1.97,6.34,3.2L1198.33,506.47z"/>
</g>
</svg>
